<mxfile host="Electron" modified="2024-04-03T12:33:50.769Z" agent="Mozilla/5.0 (Macintosh; Intel Mac OS X 10_15_7) AppleWebKit/537.36 (KHTML, like Gecko) draw.io/21.3.7 Chrome/112.0.5615.204 Electron/24.5.0 Safari/537.36" etag="ef1vD4p695ilDT7Y0CoM" version="21.3.7" type="device">
  <diagram name="Trang-1" id="FCShbB4o47yusrXKDRJA">
    <mxGraphModel dx="1868" dy="1152" grid="1" gridSize="10" guides="1" tooltips="1" connect="1" arrows="1" fold="1" page="0" pageScale="1" pageWidth="827" pageHeight="1169" math="0" shadow="0">
      <root>
        <mxCell id="0" />
        <mxCell id="1" parent="0" />
        <mxCell id="zZ7e39OdmhbCDhHyZP8K-93" value="" style="endArrow=dash;html=1;rounded=0;fontSize=12;startSize=8;endSize=8;exitX=1;exitY=0.5;exitDx=0;exitDy=0;endFill=0;entryX=0.582;entryY=1.026;entryDx=0;entryDy=0;entryPerimeter=0;" edge="1" parent="1" target="zZ7e39OdmhbCDhHyZP8K-129">
          <mxGeometry width="50" height="50" relative="1" as="geometry">
            <mxPoint x="370" y="649.67" as="sourcePoint" />
            <mxPoint x="409.81999999999994" y="649.5499999999998" as="targetPoint" />
          </mxGeometry>
        </mxCell>
        <mxCell id="zZ7e39OdmhbCDhHyZP8K-137" value="" style="endArrow=dash;html=1;rounded=0;fontSize=12;startSize=8;endSize=8;exitX=1;exitY=0.5;exitDx=0;exitDy=0;endFill=0;entryX=0.445;entryY=1.026;entryDx=0;entryDy=0;entryPerimeter=0;" edge="1" parent="1" target="zZ7e39OdmhbCDhHyZP8K-129">
          <mxGeometry width="50" height="50" relative="1" as="geometry">
            <mxPoint x="320" y="599.67" as="sourcePoint" />
            <mxPoint x="359.81999999999994" y="599.5499999999998" as="targetPoint" />
          </mxGeometry>
        </mxCell>
        <mxCell id="zZ7e39OdmhbCDhHyZP8K-139" value="" style="endArrow=dash;html=1;rounded=0;fontSize=12;startSize=8;endSize=8;exitX=1;exitY=0.5;exitDx=0;exitDy=0;endFill=0;entryX=0.471;entryY=1.012;entryDx=0;entryDy=0;entryPerimeter=0;" edge="1" parent="1" target="zZ7e39OdmhbCDhHyZP8K-129">
          <mxGeometry width="50" height="50" relative="1" as="geometry">
            <mxPoint x="330" y="609.67" as="sourcePoint" />
            <mxPoint x="369.81999999999994" y="609.5499999999998" as="targetPoint" />
          </mxGeometry>
        </mxCell>
        <mxCell id="zZ7e39OdmhbCDhHyZP8K-141" value="" style="endArrow=dash;html=1;rounded=0;fontSize=12;startSize=8;endSize=8;exitX=1;exitY=0.5;exitDx=0;exitDy=0;endFill=0;entryX=0.5;entryY=0.963;entryDx=0;entryDy=0;entryPerimeter=0;" edge="1" parent="1" target="zZ7e39OdmhbCDhHyZP8K-129">
          <mxGeometry width="50" height="50" relative="1" as="geometry">
            <mxPoint x="340" y="619.67" as="sourcePoint" />
            <mxPoint x="379.81999999999994" y="619.5499999999998" as="targetPoint" />
          </mxGeometry>
        </mxCell>
        <mxCell id="zZ7e39OdmhbCDhHyZP8K-143" value="" style="endArrow=dash;html=1;rounded=0;fontSize=12;startSize=8;endSize=8;exitX=1;exitY=0.5;exitDx=0;exitDy=0;endFill=0;entryX=0.527;entryY=0.997;entryDx=0;entryDy=0;entryPerimeter=0;" edge="1" parent="1" target="zZ7e39OdmhbCDhHyZP8K-129">
          <mxGeometry width="50" height="50" relative="1" as="geometry">
            <mxPoint x="350" y="629.67" as="sourcePoint" />
            <mxPoint x="389.81999999999994" y="629.5499999999998" as="targetPoint" />
          </mxGeometry>
        </mxCell>
        <mxCell id="zZ7e39OdmhbCDhHyZP8K-145" value="" style="endArrow=dash;html=1;rounded=0;fontSize=12;startSize=8;endSize=8;exitX=1;exitY=0.5;exitDx=0;exitDy=0;endFill=0;entryX=0.554;entryY=0.997;entryDx=0;entryDy=0;entryPerimeter=0;" edge="1" parent="1" target="zZ7e39OdmhbCDhHyZP8K-129">
          <mxGeometry width="50" height="50" relative="1" as="geometry">
            <mxPoint x="360" y="639.67" as="sourcePoint" />
            <mxPoint x="399.81999999999994" y="639.5499999999998" as="targetPoint" />
          </mxGeometry>
        </mxCell>
        <mxCell id="zZ7e39OdmhbCDhHyZP8K-187" value="FT" style="shape=step;perimeter=stepPerimeter;whiteSpace=wrap;html=1;fixedSize=1;fontSize=16;" vertex="1" parent="1">
          <mxGeometry x="260" y="560" width="80" height="80" as="geometry" />
        </mxCell>
        <mxCell id="zZ7e39OdmhbCDhHyZP8K-188" value="FT" style="shape=step;perimeter=stepPerimeter;whiteSpace=wrap;html=1;fixedSize=1;fontSize=16;" vertex="1" parent="1">
          <mxGeometry x="270" y="570" width="80" height="80" as="geometry" />
        </mxCell>
        <mxCell id="zZ7e39OdmhbCDhHyZP8K-189" value="FT" style="shape=step;perimeter=stepPerimeter;whiteSpace=wrap;html=1;fixedSize=1;fontSize=16;" vertex="1" parent="1">
          <mxGeometry x="280" y="580" width="80" height="80" as="geometry" />
        </mxCell>
        <mxCell id="zZ7e39OdmhbCDhHyZP8K-190" value="FT" style="shape=step;perimeter=stepPerimeter;whiteSpace=wrap;html=1;fixedSize=1;fontSize=16;" vertex="1" parent="1">
          <mxGeometry x="290" y="590" width="80" height="80" as="geometry" />
        </mxCell>
        <mxCell id="zZ7e39OdmhbCDhHyZP8K-191" value="FT" style="shape=step;perimeter=stepPerimeter;whiteSpace=wrap;html=1;fixedSize=1;fontSize=16;" vertex="1" parent="1">
          <mxGeometry x="300" y="600" width="80" height="80" as="geometry" />
        </mxCell>
        <mxCell id="zZ7e39OdmhbCDhHyZP8K-192" value="FT&lt;sup&gt;-1&lt;/sup&gt;" style="shape=step;perimeter=stepPerimeter;whiteSpace=wrap;html=1;fixedSize=1;fontSize=16;" vertex="1" parent="1">
          <mxGeometry x="310" y="610" width="80" height="80" as="geometry" />
        </mxCell>
        <mxCell id="zZ7e39OdmhbCDhHyZP8K-147" value="" style="group" vertex="1" connectable="0" parent="1">
          <mxGeometry x="150" y="560" width="110" height="130" as="geometry" />
        </mxCell>
        <mxCell id="zZ7e39OdmhbCDhHyZP8K-148" value="" style="triangle;whiteSpace=wrap;html=1;fontSize=16;" vertex="1" parent="zZ7e39OdmhbCDhHyZP8K-147">
          <mxGeometry width="60" height="80" as="geometry" />
        </mxCell>
        <mxCell id="zZ7e39OdmhbCDhHyZP8K-149" value="" style="triangle;whiteSpace=wrap;html=1;fontSize=16;" vertex="1" parent="zZ7e39OdmhbCDhHyZP8K-147">
          <mxGeometry x="10" y="10" width="60" height="80" as="geometry" />
        </mxCell>
        <mxCell id="zZ7e39OdmhbCDhHyZP8K-150" value="" style="triangle;whiteSpace=wrap;html=1;fontSize=16;" vertex="1" parent="zZ7e39OdmhbCDhHyZP8K-147">
          <mxGeometry x="20" y="20" width="60" height="80" as="geometry" />
        </mxCell>
        <mxCell id="zZ7e39OdmhbCDhHyZP8K-151" value="" style="triangle;whiteSpace=wrap;html=1;fontSize=16;" vertex="1" parent="zZ7e39OdmhbCDhHyZP8K-147">
          <mxGeometry x="30" y="30" width="60" height="80" as="geometry" />
        </mxCell>
        <mxCell id="zZ7e39OdmhbCDhHyZP8K-152" value="" style="triangle;whiteSpace=wrap;html=1;fontSize=16;" vertex="1" parent="zZ7e39OdmhbCDhHyZP8K-147">
          <mxGeometry x="40" y="40" width="60" height="80" as="geometry" />
        </mxCell>
        <mxCell id="zZ7e39OdmhbCDhHyZP8K-153" value="g[6:1]" style="triangle;whiteSpace=wrap;html=1;fontSize=16;" vertex="1" parent="zZ7e39OdmhbCDhHyZP8K-147">
          <mxGeometry x="50" y="50" width="60" height="80" as="geometry" />
        </mxCell>
        <mxCell id="zZ7e39OdmhbCDhHyZP8K-154" value="" style="endArrow=none;html=1;rounded=0;fontSize=12;startSize=8;endSize=8;entryX=0.444;entryY=1.014;entryDx=0;entryDy=0;entryPerimeter=0;endFill=0;startArrow=none;startFill=0;" edge="1" parent="zZ7e39OdmhbCDhHyZP8K-147">
          <mxGeometry width="50" height="50" relative="1" as="geometry">
            <mxPoint y="90" as="sourcePoint" />
            <mxPoint x="50" y="90.46000000000004" as="targetPoint" />
          </mxGeometry>
        </mxCell>
        <mxCell id="zZ7e39OdmhbCDhHyZP8K-107" value="" style="endArrow=none;html=1;rounded=0;fontSize=12;startSize=8;endSize=8;exitX=1;exitY=0.5;exitDx=0;exitDy=0;endFill=0;entryX=0.583;entryY=1.003;entryDx=0;entryDy=0;entryPerimeter=0;" edge="1" parent="zZ7e39OdmhbCDhHyZP8K-147">
          <mxGeometry width="50" height="50" relative="1" as="geometry">
            <mxPoint x="110" y="90.04999999999995" as="sourcePoint" />
            <mxPoint x="179.81999999999994" y="89.92999999999984" as="targetPoint" />
          </mxGeometry>
        </mxCell>
        <mxCell id="zZ7e39OdmhbCDhHyZP8K-108" value="" style="endArrow=none;html=1;rounded=0;fontSize=12;startSize=8;endSize=8;exitX=1;exitY=0.5;exitDx=0;exitDy=0;endFill=0;" edge="1" parent="zZ7e39OdmhbCDhHyZP8K-147">
          <mxGeometry width="50" height="50" relative="1" as="geometry">
            <mxPoint x="100" y="80.04999999999995" as="sourcePoint" />
            <mxPoint x="170" y="80" as="targetPoint" />
          </mxGeometry>
        </mxCell>
        <mxCell id="zZ7e39OdmhbCDhHyZP8K-109" value="" style="endArrow=none;html=1;rounded=0;fontSize=12;startSize=8;endSize=8;entryX=0;entryY=0.5;entryDx=0;entryDy=0;exitX=1;exitY=0.5;exitDx=0;exitDy=0;endFill=0;" edge="1" parent="zZ7e39OdmhbCDhHyZP8K-147">
          <mxGeometry width="50" height="50" relative="1" as="geometry">
            <mxPoint x="90" y="69.90999999999997" as="sourcePoint" />
            <mxPoint x="160" y="70.04999999999995" as="targetPoint" />
          </mxGeometry>
        </mxCell>
        <mxCell id="zZ7e39OdmhbCDhHyZP8K-110" value="" style="endArrow=none;html=1;rounded=0;fontSize=12;startSize=8;endSize=8;entryX=0.5;entryY=1;entryDx=0;entryDy=0;exitX=1;exitY=0.5;exitDx=0;exitDy=0;endFill=0;" edge="1" parent="zZ7e39OdmhbCDhHyZP8K-147">
          <mxGeometry width="50" height="50" relative="1" as="geometry">
            <mxPoint x="80" y="59.90999999999997" as="sourcePoint" />
            <mxPoint x="150" y="60.049999999999955" as="targetPoint" />
          </mxGeometry>
        </mxCell>
        <mxCell id="zZ7e39OdmhbCDhHyZP8K-111" value="" style="endArrow=none;html=1;rounded=0;fontSize=12;startSize=8;endSize=8;exitX=1;exitY=0.5;exitDx=0;exitDy=0;endFill=0;" edge="1" parent="zZ7e39OdmhbCDhHyZP8K-147">
          <mxGeometry width="50" height="50" relative="1" as="geometry">
            <mxPoint x="70" y="49.90999999999997" as="sourcePoint" />
            <mxPoint x="140" y="50" as="targetPoint" />
          </mxGeometry>
        </mxCell>
        <mxCell id="zZ7e39OdmhbCDhHyZP8K-112" value="" style="endArrow=none;html=1;rounded=0;fontSize=12;startSize=8;endSize=8;exitX=1;exitY=0.5;exitDx=0;exitDy=0;endFill=0;" edge="1" parent="zZ7e39OdmhbCDhHyZP8K-147">
          <mxGeometry width="50" height="50" relative="1" as="geometry">
            <mxPoint x="60" y="40.049999999999955" as="sourcePoint" />
            <mxPoint x="130" y="40" as="targetPoint" />
          </mxGeometry>
        </mxCell>
        <mxCell id="zZ7e39OdmhbCDhHyZP8K-97" value="" style="endArrow=none;html=1;rounded=0;fontSize=12;startSize=8;endSize=8;entryX=0.444;entryY=1.014;entryDx=0;entryDy=0;entryPerimeter=0;endFill=0;startArrow=none;startFill=0;" edge="1" parent="1">
          <mxGeometry width="50" height="50" relative="1" as="geometry">
            <mxPoint x="70" y="609.46" as="sourcePoint" />
            <mxPoint x="150" y="609.92" as="targetPoint" />
          </mxGeometry>
        </mxCell>
        <mxCell id="zZ7e39OdmhbCDhHyZP8K-94" value="" style="endArrow=none;html=1;rounded=0;fontSize=12;startSize=8;endSize=8;entryX=0.444;entryY=1.014;entryDx=0;entryDy=0;entryPerimeter=0;endFill=0;startArrow=none;startFill=0;" edge="1" parent="1">
          <mxGeometry width="50" height="50" relative="1" as="geometry">
            <mxPoint x="110" y="639.5400000000001" as="sourcePoint" />
            <mxPoint x="190" y="640" as="targetPoint" />
          </mxGeometry>
        </mxCell>
        <mxCell id="zZ7e39OdmhbCDhHyZP8K-95" value="" style="endArrow=none;html=1;rounded=0;fontSize=12;startSize=8;endSize=8;entryX=0.444;entryY=1.014;entryDx=0;entryDy=0;entryPerimeter=0;endFill=0;startArrow=none;startFill=0;" edge="1" parent="1">
          <mxGeometry width="50" height="50" relative="1" as="geometry">
            <mxPoint x="90" y="629.73" as="sourcePoint" />
            <mxPoint x="170" y="630.19" as="targetPoint" />
          </mxGeometry>
        </mxCell>
        <mxCell id="zZ7e39OdmhbCDhHyZP8K-96" value="" style="endArrow=none;html=1;rounded=0;fontSize=12;startSize=8;endSize=8;entryX=0.444;entryY=1.014;entryDx=0;entryDy=0;entryPerimeter=0;endFill=0;startArrow=none;startFill=0;" edge="1" parent="1">
          <mxGeometry width="50" height="50" relative="1" as="geometry">
            <mxPoint x="80" y="619.73" as="sourcePoint" />
            <mxPoint x="160" y="620.19" as="targetPoint" />
          </mxGeometry>
        </mxCell>
        <mxCell id="zZ7e39OdmhbCDhHyZP8K-98" value="" style="endArrow=none;html=1;rounded=0;fontSize=12;startSize=8;endSize=8;entryX=0;entryY=0.5;entryDx=0;entryDy=0;endFill=0;startArrow=none;startFill=0;" edge="1" parent="1" target="zZ7e39OdmhbCDhHyZP8K-148">
          <mxGeometry width="50" height="50" relative="1" as="geometry">
            <mxPoint x="60" y="600" as="sourcePoint" />
            <mxPoint x="140" y="600.46" as="targetPoint" />
          </mxGeometry>
        </mxCell>
        <mxCell id="zZ7e39OdmhbCDhHyZP8K-158" value="FT" style="shape=step;perimeter=stepPerimeter;whiteSpace=wrap;html=1;fixedSize=1;fontSize=16;" vertex="1" parent="1">
          <mxGeometry x="20" y="560" width="80" height="80" as="geometry" />
        </mxCell>
        <mxCell id="zZ7e39OdmhbCDhHyZP8K-159" value="FT" style="shape=step;perimeter=stepPerimeter;whiteSpace=wrap;html=1;fixedSize=1;fontSize=16;" vertex="1" parent="1">
          <mxGeometry x="30" y="570" width="80" height="80" as="geometry" />
        </mxCell>
        <mxCell id="zZ7e39OdmhbCDhHyZP8K-160" value="FT" style="shape=step;perimeter=stepPerimeter;whiteSpace=wrap;html=1;fixedSize=1;fontSize=16;" vertex="1" parent="1">
          <mxGeometry x="40" y="580" width="80" height="80" as="geometry" />
        </mxCell>
        <mxCell id="zZ7e39OdmhbCDhHyZP8K-161" value="FT" style="shape=step;perimeter=stepPerimeter;whiteSpace=wrap;html=1;fixedSize=1;fontSize=16;" vertex="1" parent="1">
          <mxGeometry x="50" y="590" width="80" height="80" as="geometry" />
        </mxCell>
        <mxCell id="zZ7e39OdmhbCDhHyZP8K-162" value="FT" style="shape=step;perimeter=stepPerimeter;whiteSpace=wrap;html=1;fixedSize=1;fontSize=16;" vertex="1" parent="1">
          <mxGeometry x="60" y="600" width="80" height="80" as="geometry" />
        </mxCell>
        <mxCell id="zZ7e39OdmhbCDhHyZP8K-163" value="FT" style="shape=step;perimeter=stepPerimeter;whiteSpace=wrap;html=1;fixedSize=1;fontSize=16;" vertex="1" parent="1">
          <mxGeometry x="70" y="610" width="80" height="80" as="geometry" />
        </mxCell>
        <mxCell id="zZ7e39OdmhbCDhHyZP8K-173" value="" style="endArrow=none;html=1;rounded=0;fontSize=12;startSize=8;endSize=8;entryX=0.444;entryY=1.014;entryDx=0;entryDy=0;entryPerimeter=0;endFill=0;startArrow=none;startFill=0;exitX=1;exitY=0.5;exitDx=0;exitDy=0;" edge="1" parent="1" source="zZ7e39OdmhbCDhHyZP8K-106">
          <mxGeometry width="50" height="50" relative="1" as="geometry">
            <mxPoint x="10" y="649.39" as="sourcePoint" />
            <mxPoint x="90" y="649.85" as="targetPoint" />
          </mxGeometry>
        </mxCell>
        <mxCell id="zZ7e39OdmhbCDhHyZP8K-174" value="" style="endArrow=none;html=1;rounded=0;fontSize=12;startSize=8;endSize=8;entryX=0.444;entryY=1.014;entryDx=0;entryDy=0;entryPerimeter=0;endFill=0;startArrow=none;startFill=0;" edge="1" parent="1">
          <mxGeometry width="50" height="50" relative="1" as="geometry">
            <mxPoint y="639.85" as="sourcePoint" />
            <mxPoint x="80" y="640.31" as="targetPoint" />
          </mxGeometry>
        </mxCell>
        <mxCell id="zZ7e39OdmhbCDhHyZP8K-175" value="" style="endArrow=none;html=1;rounded=0;fontSize=12;startSize=8;endSize=8;entryX=0.444;entryY=1.014;entryDx=0;entryDy=0;entryPerimeter=0;endFill=0;startArrow=none;startFill=0;" edge="1" parent="1">
          <mxGeometry width="50" height="50" relative="1" as="geometry">
            <mxPoint x="-10" y="630.12" as="sourcePoint" />
            <mxPoint x="70" y="630.58" as="targetPoint" />
          </mxGeometry>
        </mxCell>
        <mxCell id="zZ7e39OdmhbCDhHyZP8K-176" value="" style="endArrow=none;html=1;rounded=0;fontSize=12;startSize=8;endSize=8;entryX=0.444;entryY=1.014;entryDx=0;entryDy=0;entryPerimeter=0;endFill=0;startArrow=none;startFill=0;" edge="1" parent="1">
          <mxGeometry width="50" height="50" relative="1" as="geometry">
            <mxPoint x="-20" y="620.12" as="sourcePoint" />
            <mxPoint x="60" y="620.58" as="targetPoint" />
          </mxGeometry>
        </mxCell>
        <mxCell id="zZ7e39OdmhbCDhHyZP8K-177" value="" style="endArrow=none;html=1;rounded=0;fontSize=12;startSize=8;endSize=8;entryX=0.444;entryY=1.014;entryDx=0;entryDy=0;entryPerimeter=0;endFill=0;startArrow=none;startFill=0;" edge="1" parent="1">
          <mxGeometry width="50" height="50" relative="1" as="geometry">
            <mxPoint x="-30" y="609.85" as="sourcePoint" />
            <mxPoint x="50" y="610.31" as="targetPoint" />
          </mxGeometry>
        </mxCell>
        <mxCell id="zZ7e39OdmhbCDhHyZP8K-178" value="" style="endArrow=none;html=1;rounded=0;fontSize=12;startSize=8;endSize=8;entryX=0.444;entryY=1.014;entryDx=0;entryDy=0;entryPerimeter=0;endFill=0;startArrow=none;startFill=0;" edge="1" parent="1">
          <mxGeometry width="50" height="50" relative="1" as="geometry">
            <mxPoint x="-40" y="600.39" as="sourcePoint" />
            <mxPoint x="40" y="600.85" as="targetPoint" />
          </mxGeometry>
        </mxCell>
        <mxCell id="zZ7e39OdmhbCDhHyZP8K-29" value="" style="endArrow=none;html=1;rounded=0;fontSize=12;startSize=8;endSize=8;entryX=0.5;entryY=1;entryDx=0;entryDy=0;endFill=0;" edge="1" parent="1">
          <mxGeometry width="50" height="50" relative="1" as="geometry">
            <mxPoint x="80" y="180" as="sourcePoint" />
            <mxPoint x="150" y="180" as="targetPoint" />
          </mxGeometry>
        </mxCell>
        <mxCell id="zZ7e39OdmhbCDhHyZP8K-82" value="" style="endArrow=dash;html=1;rounded=0;fontSize=12;startSize=8;endSize=8;exitX=1;exitY=0.5;exitDx=0;exitDy=0;endFill=0;entryX=0.582;entryY=1.026;entryDx=0;entryDy=0;entryPerimeter=0;" edge="1" parent="1" target="zZ7e39OdmhbCDhHyZP8K-63">
          <mxGeometry width="50" height="50" relative="1" as="geometry">
            <mxPoint x="200" y="209.66999999999996" as="sourcePoint" />
            <mxPoint x="239.81999999999994" y="209.54999999999984" as="targetPoint" />
          </mxGeometry>
        </mxCell>
        <mxCell id="zZ7e39OdmhbCDhHyZP8K-38" value="" style="endArrow=none;html=1;rounded=0;fontSize=12;startSize=8;endSize=8;entryX=0;entryY=0.5;entryDx=0;entryDy=0;endFill=0;startArrow=none;startFill=0;" edge="1" parent="1" target="zZ7e39OdmhbCDhHyZP8K-79">
          <mxGeometry width="50" height="50" relative="1" as="geometry">
            <mxPoint x="80" y="199.46" as="sourcePoint" />
            <mxPoint x="160" y="199.92" as="targetPoint" />
          </mxGeometry>
        </mxCell>
        <mxCell id="zZ7e39OdmhbCDhHyZP8K-39" value="" style="endArrow=none;html=1;rounded=0;fontSize=12;startSize=8;endSize=8;entryX=-0.023;entryY=0.495;entryDx=0;entryDy=0;entryPerimeter=0;endFill=0;startArrow=none;startFill=0;" edge="1" parent="1" target="zZ7e39OdmhbCDhHyZP8K-77">
          <mxGeometry width="50" height="50" relative="1" as="geometry">
            <mxPoint x="70" y="189.73000000000002" as="sourcePoint" />
            <mxPoint x="150" y="190.19" as="targetPoint" />
          </mxGeometry>
        </mxCell>
        <mxCell id="zZ7e39OdmhbCDhHyZP8K-41" value="" style="endArrow=none;html=1;rounded=0;fontSize=12;startSize=8;endSize=8;entryX=0.13;entryY=0.627;entryDx=0;entryDy=0;entryPerimeter=0;endFill=0;startArrow=none;startFill=0;" edge="1" parent="1" target="zZ7e39OdmhbCDhHyZP8K-71">
          <mxGeometry width="50" height="50" relative="1" as="geometry">
            <mxPoint x="50" y="169.46" as="sourcePoint" />
            <mxPoint x="130" y="169.92" as="targetPoint" />
          </mxGeometry>
        </mxCell>
        <mxCell id="zZ7e39OdmhbCDhHyZP8K-42" value="" style="endArrow=none;html=1;rounded=0;fontSize=12;startSize=8;endSize=8;entryX=0;entryY=0.5;entryDx=0;entryDy=0;endFill=0;startArrow=none;startFill=0;" edge="1" parent="1" target="zZ7e39OdmhbCDhHyZP8K-71">
          <mxGeometry width="50" height="50" relative="1" as="geometry">
            <mxPoint x="40" y="160" as="sourcePoint" />
            <mxPoint x="120" y="160.45999999999998" as="targetPoint" />
          </mxGeometry>
        </mxCell>
        <mxCell id="zZ7e39OdmhbCDhHyZP8K-1" value="LPF" style="whiteSpace=wrap;html=1;aspect=fixed;fontSize=16;" vertex="1" parent="1">
          <mxGeometry x="-20" width="80" height="80" as="geometry" />
        </mxCell>
        <mxCell id="zZ7e39OdmhbCDhHyZP8K-2" value="" style="whiteSpace=wrap;html=1;aspect=fixed;fontSize=16;" vertex="1" parent="1">
          <mxGeometry x="-40" y="120" width="80" height="80" as="geometry" />
        </mxCell>
        <mxCell id="zZ7e39OdmhbCDhHyZP8K-3" value="HPF" style="whiteSpace=wrap;html=1;aspect=fixed;fontSize=16;" vertex="1" parent="1">
          <mxGeometry x="-20" y="280" width="80" height="80" as="geometry" />
        </mxCell>
        <mxCell id="zZ7e39OdmhbCDhHyZP8K-6" value="" style="whiteSpace=wrap;html=1;aspect=fixed;fontSize=16;" vertex="1" parent="1">
          <mxGeometry x="-30" y="130" width="80" height="80" as="geometry" />
        </mxCell>
        <mxCell id="zZ7e39OdmhbCDhHyZP8K-11" value="" style="whiteSpace=wrap;html=1;aspect=fixed;fontSize=16;" vertex="1" parent="1">
          <mxGeometry x="-20" y="140" width="80" height="80" as="geometry" />
        </mxCell>
        <mxCell id="zZ7e39OdmhbCDhHyZP8K-12" value="" style="whiteSpace=wrap;html=1;aspect=fixed;fontSize=16;" vertex="1" parent="1">
          <mxGeometry x="-10" y="150" width="80" height="80" as="geometry" />
        </mxCell>
        <mxCell id="zZ7e39OdmhbCDhHyZP8K-13" value="" style="whiteSpace=wrap;html=1;aspect=fixed;fontSize=16;" vertex="1" parent="1">
          <mxGeometry y="160" width="80" height="80" as="geometry" />
        </mxCell>
        <mxCell id="zZ7e39OdmhbCDhHyZP8K-14" value="BPF[6]" style="whiteSpace=wrap;html=1;aspect=fixed;fontSize=16;" vertex="1" parent="1">
          <mxGeometry x="10" y="170" width="80" height="80" as="geometry" />
        </mxCell>
        <mxCell id="zZ7e39OdmhbCDhHyZP8K-24" value="" style="endArrow=none;html=1;rounded=0;fontSize=12;startSize=8;endSize=8;exitX=1;exitY=0.5;exitDx=0;exitDy=0;endFill=0;entryX=0.583;entryY=1.003;entryDx=0;entryDy=0;entryPerimeter=0;" edge="1" parent="1" source="zZ7e39OdmhbCDhHyZP8K-14">
          <mxGeometry width="50" height="50" relative="1" as="geometry">
            <mxPoint x="110" y="210" as="sourcePoint" />
            <mxPoint x="179.81999999999994" y="209.87999999999988" as="targetPoint" />
          </mxGeometry>
        </mxCell>
        <mxCell id="zZ7e39OdmhbCDhHyZP8K-36" value="" style="endArrow=dash;html=1;rounded=0;fontSize=12;startSize=8;endSize=8;entryX=0.472;entryY=1.014;entryDx=0;entryDy=0;entryPerimeter=0;endFill=0;exitX=1;exitY=0.5;exitDx=0;exitDy=0;" edge="1" parent="1" source="zZ7e39OdmhbCDhHyZP8K-1">
          <mxGeometry width="50" height="50" relative="1" as="geometry">
            <mxPoint x="80" y="40" as="sourcePoint" />
            <mxPoint x="159" y="39.839999999999996" as="targetPoint" />
          </mxGeometry>
        </mxCell>
        <mxCell id="zZ7e39OdmhbCDhHyZP8K-45" value="" style="endArrow=dash;html=1;rounded=0;fontSize=12;startSize=8;endSize=8;entryX=0.472;entryY=1.014;entryDx=0;entryDy=0;entryPerimeter=0;endFill=0;exitX=1;exitY=0.5;exitDx=0;exitDy=0;" edge="1" parent="1" source="zZ7e39OdmhbCDhHyZP8K-3">
          <mxGeometry width="50" height="50" relative="1" as="geometry">
            <mxPoint x="80" y="319.86" as="sourcePoint" />
            <mxPoint x="159" y="319.7" as="targetPoint" />
          </mxGeometry>
        </mxCell>
        <mxCell id="zZ7e39OdmhbCDhHyZP8K-48" value="" style="endArrow=none;html=1;rounded=0;fontSize=12;startSize=8;endSize=8;entryX=0.444;entryY=1.014;entryDx=0;entryDy=0;entryPerimeter=0;endFill=0;startArrow=none;startFill=0;" edge="1" parent="1">
          <mxGeometry width="50" height="50" relative="1" as="geometry">
            <mxPoint x="-70" y="209" as="sourcePoint" />
            <mxPoint x="10" y="209.45999999999998" as="targetPoint" />
          </mxGeometry>
        </mxCell>
        <mxCell id="zZ7e39OdmhbCDhHyZP8K-49" value="" style="endArrow=none;html=1;rounded=0;fontSize=12;startSize=8;endSize=8;entryX=0.444;entryY=1.014;entryDx=0;entryDy=0;entryPerimeter=0;endFill=0;startArrow=none;startFill=0;" edge="1" parent="1">
          <mxGeometry width="50" height="50" relative="1" as="geometry">
            <mxPoint x="-80" y="199.46" as="sourcePoint" />
            <mxPoint y="199.92" as="targetPoint" />
          </mxGeometry>
        </mxCell>
        <mxCell id="zZ7e39OdmhbCDhHyZP8K-50" value="" style="endArrow=none;html=1;rounded=0;fontSize=12;startSize=8;endSize=8;entryX=0.444;entryY=1.014;entryDx=0;entryDy=0;entryPerimeter=0;endFill=0;startArrow=none;startFill=0;" edge="1" parent="1">
          <mxGeometry width="50" height="50" relative="1" as="geometry">
            <mxPoint x="-90" y="189.73000000000002" as="sourcePoint" />
            <mxPoint x="-10" y="190.19" as="targetPoint" />
          </mxGeometry>
        </mxCell>
        <mxCell id="zZ7e39OdmhbCDhHyZP8K-51" value="" style="endArrow=none;html=1;rounded=0;fontSize=12;startSize=8;endSize=8;entryX=0.444;entryY=1.014;entryDx=0;entryDy=0;entryPerimeter=0;endFill=0;startArrow=none;startFill=0;" edge="1" parent="1">
          <mxGeometry width="50" height="50" relative="1" as="geometry">
            <mxPoint x="-100" y="179.73000000000002" as="sourcePoint" />
            <mxPoint x="-20" y="180.19" as="targetPoint" />
          </mxGeometry>
        </mxCell>
        <mxCell id="zZ7e39OdmhbCDhHyZP8K-52" value="" style="endArrow=none;html=1;rounded=0;fontSize=12;startSize=8;endSize=8;entryX=0.444;entryY=1.014;entryDx=0;entryDy=0;entryPerimeter=0;endFill=0;startArrow=none;startFill=0;" edge="1" parent="1">
          <mxGeometry width="50" height="50" relative="1" as="geometry">
            <mxPoint x="-110" y="169.46" as="sourcePoint" />
            <mxPoint x="-30" y="169.92" as="targetPoint" />
          </mxGeometry>
        </mxCell>
        <mxCell id="zZ7e39OdmhbCDhHyZP8K-53" value="" style="endArrow=none;html=1;rounded=0;fontSize=12;startSize=8;endSize=8;entryX=0.444;entryY=1.014;entryDx=0;entryDy=0;entryPerimeter=0;endFill=0;startArrow=none;startFill=0;" edge="1" parent="1">
          <mxGeometry width="50" height="50" relative="1" as="geometry">
            <mxPoint x="-120" y="160" as="sourcePoint" />
            <mxPoint x="-40" y="160.45999999999998" as="targetPoint" />
          </mxGeometry>
        </mxCell>
        <mxCell id="zZ7e39OdmhbCDhHyZP8K-54" value="" style="endArrow=none;html=1;rounded=0;fontSize=12;startSize=8;endSize=8;endFill=0;startArrow=none;startFill=0;" edge="1" parent="1">
          <mxGeometry width="50" height="50" relative="1" as="geometry">
            <mxPoint x="-120" y="160" as="sourcePoint" />
            <mxPoint x="-70" y="210" as="targetPoint" />
          </mxGeometry>
        </mxCell>
        <mxCell id="zZ7e39OdmhbCDhHyZP8K-55" value="" style="endArrow=none;html=1;rounded=0;fontSize=12;startSize=8;endSize=8;entryX=0.444;entryY=1.014;entryDx=0;entryDy=0;entryPerimeter=0;endFill=0;startArrow=none;startFill=0;" edge="1" parent="1">
          <mxGeometry width="50" height="50" relative="1" as="geometry">
            <mxPoint x="-100" y="39.599999999999994" as="sourcePoint" />
            <mxPoint x="-20" y="40.059999999999974" as="targetPoint" />
          </mxGeometry>
        </mxCell>
        <mxCell id="zZ7e39OdmhbCDhHyZP8K-56" value="" style="endArrow=none;html=1;rounded=0;fontSize=12;startSize=8;endSize=8;entryX=0.444;entryY=1.014;entryDx=0;entryDy=0;entryPerimeter=0;endFill=0;startArrow=none;startFill=0;" edge="1" parent="1">
          <mxGeometry width="50" height="50" relative="1" as="geometry">
            <mxPoint x="-100" y="319.6" as="sourcePoint" />
            <mxPoint x="-20" y="320.05999999999995" as="targetPoint" />
          </mxGeometry>
        </mxCell>
        <mxCell id="zZ7e39OdmhbCDhHyZP8K-57" value="" style="endArrow=none;html=1;rounded=0;fontSize=12;startSize=8;endSize=8;endFill=0;startArrow=none;startFill=0;" edge="1" parent="1">
          <mxGeometry width="50" height="50" relative="1" as="geometry">
            <mxPoint x="-100" y="320" as="sourcePoint" />
            <mxPoint x="-100" y="40" as="targetPoint" />
          </mxGeometry>
        </mxCell>
        <mxCell id="zZ7e39OdmhbCDhHyZP8K-58" value="" style="endArrow=dash;html=1;rounded=0;fontSize=12;startSize=8;endSize=8;endFill=0;" edge="1" parent="1">
          <mxGeometry width="50" height="50" relative="1" as="geometry">
            <mxPoint x="-100" y="179.60000000000002" as="sourcePoint" />
            <mxPoint x="-160" y="179.84" as="targetPoint" />
          </mxGeometry>
        </mxCell>
        <mxCell id="zZ7e39OdmhbCDhHyZP8K-59" value="x(n)" style="text;html=1;align=center;verticalAlign=middle;resizable=0;points=[];autosize=1;strokeColor=none;fillColor=none;fontSize=16;" vertex="1" parent="1">
          <mxGeometry x="-180" y="140" width="50" height="30" as="geometry" />
        </mxCell>
        <mxCell id="zZ7e39OdmhbCDhHyZP8K-63" value="&lt;span style=&quot;font-size: 60px;&quot;&gt;+&lt;/span&gt;" style="shape=trapezoid;perimeter=trapezoidPerimeter;whiteSpace=wrap;html=1;fixedSize=1;fontSize=16;rotation=90;" vertex="1" parent="1">
          <mxGeometry x="100" y="150" width="360" height="60" as="geometry" />
        </mxCell>
        <mxCell id="zZ7e39OdmhbCDhHyZP8K-64" value="" style="endArrow=dash;html=1;rounded=0;fontSize=12;startSize=8;endSize=8;endFill=0;exitX=0.5;exitY=0.019;exitDx=0;exitDy=0;exitPerimeter=0;" edge="1" parent="1" source="zZ7e39OdmhbCDhHyZP8K-63">
          <mxGeometry width="50" height="50" relative="1" as="geometry">
            <mxPoint x="320" y="180" as="sourcePoint" />
            <mxPoint x="380" y="180" as="targetPoint" />
          </mxGeometry>
        </mxCell>
        <mxCell id="zZ7e39OdmhbCDhHyZP8K-65" value="y(n)" style="text;html=1;align=center;verticalAlign=middle;resizable=0;points=[];autosize=1;strokeColor=none;fillColor=none;fontSize=16;" vertex="1" parent="1">
          <mxGeometry x="350" y="140" width="50" height="30" as="geometry" />
        </mxCell>
        <mxCell id="zZ7e39OdmhbCDhHyZP8K-67" value="&lt;font style=&quot;font-size: 60px;&quot;&gt;*&lt;/font&gt;" style="rhombus;whiteSpace=wrap;html=1;fontSize=16;" vertex="1" parent="1">
          <mxGeometry x="130" width="80" height="80" as="geometry" />
        </mxCell>
        <mxCell id="zZ7e39OdmhbCDhHyZP8K-68" value="" style="endArrow=dash;html=1;rounded=0;fontSize=12;startSize=8;endSize=8;exitX=1;exitY=0.5;exitDx=0;exitDy=0;endFill=0;entryX=0.583;entryY=1.003;entryDx=0;entryDy=0;entryPerimeter=0;" edge="1" parent="1">
          <mxGeometry width="50" height="50" relative="1" as="geometry">
            <mxPoint x="210" y="39.66999999999999" as="sourcePoint" />
            <mxPoint x="249.81999999999994" y="39.54999999999987" as="targetPoint" />
          </mxGeometry>
        </mxCell>
        <mxCell id="zZ7e39OdmhbCDhHyZP8K-69" value="*" style="rhombus;whiteSpace=wrap;html=1;fontSize=60;" vertex="1" parent="1">
          <mxGeometry x="130" y="280" width="80" height="80" as="geometry" />
        </mxCell>
        <mxCell id="zZ7e39OdmhbCDhHyZP8K-70" value="" style="endArrow=dash;html=1;rounded=0;fontSize=12;startSize=8;endSize=8;exitX=1;exitY=0.5;exitDx=0;exitDy=0;endFill=0;entryX=0.583;entryY=1.003;entryDx=0;entryDy=0;entryPerimeter=0;" edge="1" parent="1">
          <mxGeometry width="50" height="50" relative="1" as="geometry">
            <mxPoint x="210" y="319.66999999999996" as="sourcePoint" />
            <mxPoint x="249.81999999999994" y="319.54999999999984" as="targetPoint" />
          </mxGeometry>
        </mxCell>
        <mxCell id="zZ7e39OdmhbCDhHyZP8K-71" value="" style="rhombus;whiteSpace=wrap;html=1;fontSize=16;" vertex="1" parent="1">
          <mxGeometry x="100" y="120" width="80" height="80" as="geometry" />
        </mxCell>
        <mxCell id="zZ7e39OdmhbCDhHyZP8K-72" value="" style="endArrow=dash;html=1;rounded=0;fontSize=12;startSize=8;endSize=8;exitX=1;exitY=0.5;exitDx=0;exitDy=0;endFill=0;entryX=0.445;entryY=1.026;entryDx=0;entryDy=0;entryPerimeter=0;" edge="1" parent="1" target="zZ7e39OdmhbCDhHyZP8K-63">
          <mxGeometry width="50" height="50" relative="1" as="geometry">
            <mxPoint x="150" y="159.66999999999996" as="sourcePoint" />
            <mxPoint x="189.81999999999994" y="159.54999999999984" as="targetPoint" />
          </mxGeometry>
        </mxCell>
        <mxCell id="zZ7e39OdmhbCDhHyZP8K-73" value="" style="rhombus;whiteSpace=wrap;html=1;fontSize=16;" vertex="1" parent="1">
          <mxGeometry x="110" y="130" width="80" height="80" as="geometry" />
        </mxCell>
        <mxCell id="zZ7e39OdmhbCDhHyZP8K-74" value="" style="endArrow=dash;html=1;rounded=0;fontSize=12;startSize=8;endSize=8;exitX=1;exitY=0.5;exitDx=0;exitDy=0;endFill=0;entryX=0.471;entryY=1.012;entryDx=0;entryDy=0;entryPerimeter=0;" edge="1" parent="1" target="zZ7e39OdmhbCDhHyZP8K-63">
          <mxGeometry width="50" height="50" relative="1" as="geometry">
            <mxPoint x="160" y="169.66999999999996" as="sourcePoint" />
            <mxPoint x="199.81999999999994" y="169.54999999999984" as="targetPoint" />
          </mxGeometry>
        </mxCell>
        <mxCell id="zZ7e39OdmhbCDhHyZP8K-75" value="" style="rhombus;whiteSpace=wrap;html=1;fontSize=16;" vertex="1" parent="1">
          <mxGeometry x="120" y="140" width="80" height="80" as="geometry" />
        </mxCell>
        <mxCell id="zZ7e39OdmhbCDhHyZP8K-76" value="" style="endArrow=dash;html=1;rounded=0;fontSize=12;startSize=8;endSize=8;exitX=1;exitY=0.5;exitDx=0;exitDy=0;endFill=0;entryX=0.5;entryY=0.963;entryDx=0;entryDy=0;entryPerimeter=0;" edge="1" parent="1" target="zZ7e39OdmhbCDhHyZP8K-63">
          <mxGeometry width="50" height="50" relative="1" as="geometry">
            <mxPoint x="170" y="179.66999999999996" as="sourcePoint" />
            <mxPoint x="209.81999999999994" y="179.54999999999984" as="targetPoint" />
          </mxGeometry>
        </mxCell>
        <mxCell id="zZ7e39OdmhbCDhHyZP8K-77" value="" style="rhombus;whiteSpace=wrap;html=1;fontSize=16;" vertex="1" parent="1">
          <mxGeometry x="130" y="150" width="80" height="80" as="geometry" />
        </mxCell>
        <mxCell id="zZ7e39OdmhbCDhHyZP8K-78" value="" style="endArrow=dash;html=1;rounded=0;fontSize=12;startSize=8;endSize=8;exitX=1;exitY=0.5;exitDx=0;exitDy=0;endFill=0;entryX=0.527;entryY=0.997;entryDx=0;entryDy=0;entryPerimeter=0;" edge="1" parent="1" target="zZ7e39OdmhbCDhHyZP8K-63">
          <mxGeometry width="50" height="50" relative="1" as="geometry">
            <mxPoint x="180" y="189.66999999999996" as="sourcePoint" />
            <mxPoint x="219.81999999999994" y="189.54999999999984" as="targetPoint" />
          </mxGeometry>
        </mxCell>
        <mxCell id="zZ7e39OdmhbCDhHyZP8K-79" value="" style="rhombus;whiteSpace=wrap;html=1;fontSize=16;" vertex="1" parent="1">
          <mxGeometry x="140" y="160" width="80" height="80" as="geometry" />
        </mxCell>
        <mxCell id="zZ7e39OdmhbCDhHyZP8K-80" value="" style="endArrow=dash;html=1;rounded=0;fontSize=12;startSize=8;endSize=8;exitX=1;exitY=0.5;exitDx=0;exitDy=0;endFill=0;entryX=0.554;entryY=0.997;entryDx=0;entryDy=0;entryPerimeter=0;" edge="1" parent="1" target="zZ7e39OdmhbCDhHyZP8K-63">
          <mxGeometry width="50" height="50" relative="1" as="geometry">
            <mxPoint x="190" y="199.66999999999996" as="sourcePoint" />
            <mxPoint x="229.81999999999994" y="199.54999999999984" as="targetPoint" />
          </mxGeometry>
        </mxCell>
        <mxCell id="zZ7e39OdmhbCDhHyZP8K-81" value="*" style="rhombus;whiteSpace=wrap;html=1;fontSize=60;" vertex="1" parent="1">
          <mxGeometry x="150" y="170" width="80" height="80" as="geometry" />
        </mxCell>
        <mxCell id="zZ7e39OdmhbCDhHyZP8K-99" value="LPF" style="whiteSpace=wrap;html=1;aspect=fixed;fontSize=16;" vertex="1" parent="1">
          <mxGeometry x="-110" y="440" width="80" height="80" as="geometry" />
        </mxCell>
        <mxCell id="zZ7e39OdmhbCDhHyZP8K-100" value="" style="whiteSpace=wrap;html=1;aspect=fixed;fontSize=16;" vertex="1" parent="1">
          <mxGeometry x="-130" y="560" width="80" height="80" as="geometry" />
        </mxCell>
        <mxCell id="zZ7e39OdmhbCDhHyZP8K-101" value="HPF" style="whiteSpace=wrap;html=1;aspect=fixed;fontSize=16;" vertex="1" parent="1">
          <mxGeometry x="-110" y="720" width="80" height="80" as="geometry" />
        </mxCell>
        <mxCell id="zZ7e39OdmhbCDhHyZP8K-102" value="" style="whiteSpace=wrap;html=1;aspect=fixed;fontSize=16;" vertex="1" parent="1">
          <mxGeometry x="-120" y="570" width="80" height="80" as="geometry" />
        </mxCell>
        <mxCell id="zZ7e39OdmhbCDhHyZP8K-103" value="" style="whiteSpace=wrap;html=1;aspect=fixed;fontSize=16;" vertex="1" parent="1">
          <mxGeometry x="-110" y="580" width="80" height="80" as="geometry" />
        </mxCell>
        <mxCell id="zZ7e39OdmhbCDhHyZP8K-104" value="" style="whiteSpace=wrap;html=1;aspect=fixed;fontSize=16;" vertex="1" parent="1">
          <mxGeometry x="-100" y="590" width="80" height="80" as="geometry" />
        </mxCell>
        <mxCell id="zZ7e39OdmhbCDhHyZP8K-105" value="" style="whiteSpace=wrap;html=1;aspect=fixed;fontSize=16;" vertex="1" parent="1">
          <mxGeometry x="-90" y="600" width="80" height="80" as="geometry" />
        </mxCell>
        <mxCell id="zZ7e39OdmhbCDhHyZP8K-106" value="BPF[6]" style="whiteSpace=wrap;html=1;aspect=fixed;fontSize=16;" vertex="1" parent="1">
          <mxGeometry x="-80" y="610" width="80" height="80" as="geometry" />
        </mxCell>
        <mxCell id="zZ7e39OdmhbCDhHyZP8K-113" value="" style="endArrow=dash;html=1;rounded=0;fontSize=12;startSize=8;endSize=8;entryX=0.472;entryY=1.014;entryDx=0;entryDy=0;entryPerimeter=0;endFill=0;" edge="1" parent="1">
          <mxGeometry width="50" height="50" relative="1" as="geometry">
            <mxPoint x="220" y="480" as="sourcePoint" />
            <mxPoint x="299" y="479.84" as="targetPoint" />
          </mxGeometry>
        </mxCell>
        <mxCell id="zZ7e39OdmhbCDhHyZP8K-114" value="" style="endArrow=dash;html=1;rounded=0;fontSize=12;startSize=8;endSize=8;entryX=0.472;entryY=1.014;entryDx=0;entryDy=0;entryPerimeter=0;endFill=0;" edge="1" parent="1">
          <mxGeometry width="50" height="50" relative="1" as="geometry">
            <mxPoint x="220" y="759.86" as="sourcePoint" />
            <mxPoint x="299" y="759.7" as="targetPoint" />
          </mxGeometry>
        </mxCell>
        <mxCell id="zZ7e39OdmhbCDhHyZP8K-115" value="" style="endArrow=dash;html=1;rounded=0;fontSize=12;startSize=8;endSize=8;entryX=0.472;entryY=1.014;entryDx=0;entryDy=0;entryPerimeter=0;endFill=0;" edge="1" parent="1">
          <mxGeometry width="50" height="50" relative="1" as="geometry">
            <mxPoint x="81" y="759.86" as="sourcePoint" />
            <mxPoint x="160" y="759.7" as="targetPoint" />
          </mxGeometry>
        </mxCell>
        <mxCell id="zZ7e39OdmhbCDhHyZP8K-116" value="" style="endArrow=dash;html=1;rounded=0;fontSize=12;startSize=8;endSize=8;entryX=0.472;entryY=1.014;entryDx=0;entryDy=0;entryPerimeter=0;endFill=0;" edge="1" parent="1">
          <mxGeometry width="50" height="50" relative="1" as="geometry">
            <mxPoint x="80" y="479.86" as="sourcePoint" />
            <mxPoint x="159" y="479.7" as="targetPoint" />
          </mxGeometry>
        </mxCell>
        <mxCell id="zZ7e39OdmhbCDhHyZP8K-117" value="" style="endArrow=none;html=1;rounded=0;fontSize=12;startSize=8;endSize=8;entryX=0.444;entryY=1.014;entryDx=0;entryDy=0;entryPerimeter=0;endFill=0;startArrow=none;startFill=0;" edge="1" parent="1">
          <mxGeometry width="50" height="50" relative="1" as="geometry">
            <mxPoint x="-160" y="649" as="sourcePoint" />
            <mxPoint x="-80" y="649.46" as="targetPoint" />
          </mxGeometry>
        </mxCell>
        <mxCell id="zZ7e39OdmhbCDhHyZP8K-118" value="" style="endArrow=none;html=1;rounded=0;fontSize=12;startSize=8;endSize=8;entryX=0.444;entryY=1.014;entryDx=0;entryDy=0;entryPerimeter=0;endFill=0;startArrow=none;startFill=0;" edge="1" parent="1">
          <mxGeometry width="50" height="50" relative="1" as="geometry">
            <mxPoint x="-170" y="639.46" as="sourcePoint" />
            <mxPoint x="-90" y="639.92" as="targetPoint" />
          </mxGeometry>
        </mxCell>
        <mxCell id="zZ7e39OdmhbCDhHyZP8K-119" value="" style="endArrow=none;html=1;rounded=0;fontSize=12;startSize=8;endSize=8;entryX=0.444;entryY=1.014;entryDx=0;entryDy=0;entryPerimeter=0;endFill=0;startArrow=none;startFill=0;" edge="1" parent="1">
          <mxGeometry width="50" height="50" relative="1" as="geometry">
            <mxPoint x="-180" y="629.73" as="sourcePoint" />
            <mxPoint x="-100" y="630.19" as="targetPoint" />
          </mxGeometry>
        </mxCell>
        <mxCell id="zZ7e39OdmhbCDhHyZP8K-120" value="" style="endArrow=none;html=1;rounded=0;fontSize=12;startSize=8;endSize=8;entryX=0.444;entryY=1.014;entryDx=0;entryDy=0;entryPerimeter=0;endFill=0;startArrow=none;startFill=0;" edge="1" parent="1">
          <mxGeometry width="50" height="50" relative="1" as="geometry">
            <mxPoint x="-190" y="619.73" as="sourcePoint" />
            <mxPoint x="-110" y="620.19" as="targetPoint" />
          </mxGeometry>
        </mxCell>
        <mxCell id="zZ7e39OdmhbCDhHyZP8K-121" value="" style="endArrow=none;html=1;rounded=0;fontSize=12;startSize=8;endSize=8;entryX=0.444;entryY=1.014;entryDx=0;entryDy=0;entryPerimeter=0;endFill=0;startArrow=none;startFill=0;" edge="1" parent="1">
          <mxGeometry width="50" height="50" relative="1" as="geometry">
            <mxPoint x="-200" y="609.46" as="sourcePoint" />
            <mxPoint x="-120" y="609.92" as="targetPoint" />
          </mxGeometry>
        </mxCell>
        <mxCell id="zZ7e39OdmhbCDhHyZP8K-122" value="" style="endArrow=none;html=1;rounded=0;fontSize=12;startSize=8;endSize=8;entryX=0.444;entryY=1.014;entryDx=0;entryDy=0;entryPerimeter=0;endFill=0;startArrow=none;startFill=0;" edge="1" parent="1">
          <mxGeometry width="50" height="50" relative="1" as="geometry">
            <mxPoint x="-210" y="600" as="sourcePoint" />
            <mxPoint x="-130" y="600.46" as="targetPoint" />
          </mxGeometry>
        </mxCell>
        <mxCell id="zZ7e39OdmhbCDhHyZP8K-123" value="" style="endArrow=none;html=1;rounded=0;fontSize=12;startSize=8;endSize=8;endFill=0;startArrow=none;startFill=0;" edge="1" parent="1">
          <mxGeometry width="50" height="50" relative="1" as="geometry">
            <mxPoint x="-210" y="600" as="sourcePoint" />
            <mxPoint x="-160" y="650" as="targetPoint" />
          </mxGeometry>
        </mxCell>
        <mxCell id="zZ7e39OdmhbCDhHyZP8K-124" value="" style="endArrow=none;html=1;rounded=0;fontSize=12;startSize=8;endSize=8;entryX=0.444;entryY=1.014;entryDx=0;entryDy=0;entryPerimeter=0;endFill=0;startArrow=none;startFill=0;" edge="1" parent="1">
          <mxGeometry width="50" height="50" relative="1" as="geometry">
            <mxPoint x="-190" y="479.6" as="sourcePoint" />
            <mxPoint x="-110" y="480.05999999999995" as="targetPoint" />
          </mxGeometry>
        </mxCell>
        <mxCell id="zZ7e39OdmhbCDhHyZP8K-125" value="" style="endArrow=none;html=1;rounded=0;fontSize=12;startSize=8;endSize=8;entryX=0.444;entryY=1.014;entryDx=0;entryDy=0;entryPerimeter=0;endFill=0;startArrow=none;startFill=0;" edge="1" parent="1">
          <mxGeometry width="50" height="50" relative="1" as="geometry">
            <mxPoint x="-190" y="759.6" as="sourcePoint" />
            <mxPoint x="-110" y="760.06" as="targetPoint" />
          </mxGeometry>
        </mxCell>
        <mxCell id="zZ7e39OdmhbCDhHyZP8K-126" value="" style="endArrow=none;html=1;rounded=0;fontSize=12;startSize=8;endSize=8;endFill=0;startArrow=none;startFill=0;" edge="1" parent="1">
          <mxGeometry width="50" height="50" relative="1" as="geometry">
            <mxPoint x="-190" y="760" as="sourcePoint" />
            <mxPoint x="-190" y="480" as="targetPoint" />
          </mxGeometry>
        </mxCell>
        <mxCell id="zZ7e39OdmhbCDhHyZP8K-129" value="&lt;span style=&quot;font-size: 60px;&quot;&gt;+&lt;/span&gt;" style="shape=trapezoid;perimeter=trapezoidPerimeter;whiteSpace=wrap;html=1;fixedSize=1;fontSize=16;rotation=90;" vertex="1" parent="1">
          <mxGeometry x="270" y="590" width="360" height="60" as="geometry" />
        </mxCell>
        <mxCell id="zZ7e39OdmhbCDhHyZP8K-130" value="" style="endArrow=dash;html=1;rounded=0;fontSize=12;startSize=8;endSize=8;endFill=0;exitX=0.5;exitY=0.019;exitDx=0;exitDy=0;exitPerimeter=0;" edge="1" parent="1" source="zZ7e39OdmhbCDhHyZP8K-129">
          <mxGeometry width="50" height="50" relative="1" as="geometry">
            <mxPoint x="490" y="620" as="sourcePoint" />
            <mxPoint x="550" y="620" as="targetPoint" />
          </mxGeometry>
        </mxCell>
        <mxCell id="zZ7e39OdmhbCDhHyZP8K-131" value="y(n)" style="text;html=1;align=center;verticalAlign=middle;resizable=0;points=[];autosize=1;strokeColor=none;fillColor=none;fontSize=16;" vertex="1" parent="1">
          <mxGeometry x="520" y="580" width="50" height="30" as="geometry" />
        </mxCell>
        <mxCell id="zZ7e39OdmhbCDhHyZP8K-133" value="" style="endArrow=dash;html=1;rounded=0;fontSize=12;startSize=8;endSize=8;exitX=1;exitY=0.5;exitDx=0;exitDy=0;endFill=0;entryX=0.583;entryY=1.003;entryDx=0;entryDy=0;entryPerimeter=0;" edge="1" parent="1" source="zZ7e39OdmhbCDhHyZP8K-193">
          <mxGeometry width="50" height="50" relative="1" as="geometry">
            <mxPoint x="380" y="479.66999999999996" as="sourcePoint" />
            <mxPoint x="419.81999999999994" y="479.54999999999984" as="targetPoint" />
          </mxGeometry>
        </mxCell>
        <mxCell id="zZ7e39OdmhbCDhHyZP8K-135" value="" style="endArrow=dash;html=1;rounded=0;fontSize=12;startSize=8;endSize=8;exitX=1;exitY=0.5;exitDx=0;exitDy=0;endFill=0;entryX=0.583;entryY=1.003;entryDx=0;entryDy=0;entryPerimeter=0;" edge="1" parent="1" source="zZ7e39OdmhbCDhHyZP8K-194">
          <mxGeometry width="50" height="50" relative="1" as="geometry">
            <mxPoint x="380" y="759.67" as="sourcePoint" />
            <mxPoint x="419.81999999999994" y="759.5499999999998" as="targetPoint" />
          </mxGeometry>
        </mxCell>
        <mxCell id="zZ7e39OdmhbCDhHyZP8K-155" value="g0" style="triangle;whiteSpace=wrap;html=1;fontSize=16;" vertex="1" parent="1">
          <mxGeometry x="160" y="440" width="60" height="80" as="geometry" />
        </mxCell>
        <mxCell id="zZ7e39OdmhbCDhHyZP8K-156" value="g7" style="triangle;whiteSpace=wrap;html=1;fontSize=16;" vertex="1" parent="1">
          <mxGeometry x="160" y="720" width="60" height="80" as="geometry" />
        </mxCell>
        <mxCell id="zZ7e39OdmhbCDhHyZP8K-157" value="FT" style="shape=step;perimeter=stepPerimeter;whiteSpace=wrap;html=1;fixedSize=1;fontSize=16;" vertex="1" parent="1">
          <mxGeometry x="30" y="440" width="80" height="80" as="geometry" />
        </mxCell>
        <mxCell id="zZ7e39OdmhbCDhHyZP8K-164" value="" style="endArrow=dash;html=1;rounded=0;fontSize=12;startSize=8;endSize=8;endFill=0;" edge="1" parent="1">
          <mxGeometry width="50" height="50" relative="1" as="geometry">
            <mxPoint x="-190" y="619.6" as="sourcePoint" />
            <mxPoint x="-250" y="619.84" as="targetPoint" />
          </mxGeometry>
        </mxCell>
        <mxCell id="zZ7e39OdmhbCDhHyZP8K-165" value="x(n)" style="text;html=1;align=center;verticalAlign=middle;resizable=0;points=[];autosize=1;strokeColor=none;fillColor=none;fontSize=16;" vertex="1" parent="1">
          <mxGeometry x="-270" y="580" width="50" height="30" as="geometry" />
        </mxCell>
        <mxCell id="zZ7e39OdmhbCDhHyZP8K-193" value="FT&lt;sup&gt;-1&lt;/sup&gt;" style="shape=step;perimeter=stepPerimeter;whiteSpace=wrap;html=1;fixedSize=1;fontSize=16;" vertex="1" parent="1">
          <mxGeometry x="280" y="440" width="80" height="80" as="geometry" />
        </mxCell>
        <mxCell id="zZ7e39OdmhbCDhHyZP8K-194" value="FT&lt;sup&gt;-1&lt;/sup&gt;" style="shape=step;perimeter=stepPerimeter;whiteSpace=wrap;html=1;fixedSize=1;fontSize=16;" vertex="1" parent="1">
          <mxGeometry x="280" y="720" width="80" height="80" as="geometry" />
        </mxCell>
        <mxCell id="zZ7e39OdmhbCDhHyZP8K-195" value="FT" style="shape=step;perimeter=stepPerimeter;whiteSpace=wrap;html=1;fixedSize=1;fontSize=16;" vertex="1" parent="1">
          <mxGeometry x="30" y="720" width="80" height="80" as="geometry" />
        </mxCell>
        <mxCell id="zZ7e39OdmhbCDhHyZP8K-196" value="" style="endArrow=dash;html=1;rounded=0;fontSize=12;startSize=8;endSize=8;entryX=0.472;entryY=1.014;entryDx=0;entryDy=0;entryPerimeter=0;endFill=0;" edge="1" parent="1">
          <mxGeometry width="50" height="50" relative="1" as="geometry">
            <mxPoint x="-30" y="759.84" as="sourcePoint" />
            <mxPoint x="49" y="759.6800000000001" as="targetPoint" />
          </mxGeometry>
        </mxCell>
        <mxCell id="zZ7e39OdmhbCDhHyZP8K-197" value="" style="endArrow=dash;html=1;rounded=0;fontSize=12;startSize=8;endSize=8;entryX=0.472;entryY=1.014;entryDx=0;entryDy=0;entryPerimeter=0;endFill=0;" edge="1" parent="1">
          <mxGeometry width="50" height="50" relative="1" as="geometry">
            <mxPoint x="-29" y="479.84000000000003" as="sourcePoint" />
            <mxPoint x="50" y="479.68000000000006" as="targetPoint" />
          </mxGeometry>
        </mxCell>
      </root>
    </mxGraphModel>
  </diagram>
</mxfile>
